HIERARCHY
ROOT hip
{
  OFFSET 0 0 0
  CHANNELS 6 Xposition Yposition Zposition Zrotation Yrotation Xrotation
  JOINT abdomen
  {
    OFFSET 0 20.6881 -0.73152
    CHANNELS 3 Zrotation Xrotation Yrotation
    JOINT chest
    {
      OFFSET 0 11.7043 -0.48768
      CHANNELS 3 Zrotation Xrotation Yrotation
      JOINT neck
      {
        OFFSET 0 22.1894 -2.19456
        CHANNELS 3 Zrotation Xrotation Yrotation
        JOINT head
        {
          OFFSET -0.24384 7.07133 1.2192
          CHANNELS 3 Zrotation Xrotation Yrotation
          JOINT leftEye
          {
            OFFSET 4.14528 8.04674 8.04672
            CHANNELS 3 Zrotation Xrotation Yrotation
            End Site
            {
              OFFSET 1 0 0
            }
          }
          JOINT rightEye
          {
            OFFSET -3.6576 8.04674 8.04672
            CHANNELS 3 Zrotation Xrotation Yrotation
            End Site
            {
              OFFSET 1 0 0
            }
          }
        }
      }
      JOINT rCollar
      {
        OFFSET -2.68224 19.2634 -4.8768
        CHANNELS 3 Zrotation Xrotation Yrotation
        JOINT rShldr
        {
          OFFSET -8.77824 -1.95073 1.46304
          CHANNELS 3 Zrotation Xrotation Yrotation
          JOINT rForeArm
          {
            OFFSET -28.1742 -1.7115 0.48768
            CHANNELS 3 Zrotation Xrotation Yrotation
            JOINT rHand
            {
              OFFSET -22.5879 0.773209 7.07136
              CHANNELS 3 Zrotation Xrotation Yrotation
              JOINT rThumb1
              {
                OFFSET -1.2192 -0.487915 3.41376
                CHANNELS 3 Zrotation Xrotation Yrotation
                JOINT rThumb2
                {
                  OFFSET -3.37035 -0.52449 3.41376
                  CHANNELS 3 Zrotation Xrotation Yrotation
                  End Site
                  {
                    OFFSET -1.78271 -1.18214 1.43049
                  }
                }
              }
              JOINT rIndex1
              {
                OFFSET -7.75947 0.938293 5.60832
                CHANNELS 3 Zrotation Xrotation Yrotation
                JOINT rIndex2
                {
                  OFFSET -2.54057 -0.884171 1.56538
                  CHANNELS 3 Zrotation Xrotation Yrotation
                  End Site
                  {
                    OFFSET -1.62519 -0.234802 1.16502
                  }
                }
              }
              JOINT rMid1
              {
                OFFSET -8.24714 1.18213 3.41376
                CHANNELS 3 Zrotation Xrotation Yrotation
                JOINT rMid2
                {
                  OFFSET -3.10165 -0.590103 1.0647
                  CHANNELS 3 Zrotation Xrotation Yrotation
                  End Site
                  {
                    OFFSET -2.48547 -0.328903 0.83742
                  }
                }
              }
              JOINT rRing1
              {
                OFFSET -8.82822 0.546677 1.51678
                CHANNELS 3 Zrotation Xrotation Yrotation
                JOINT rRing2
                {
                  OFFSET -2.60934 -0.819778 -0.0198488
                  CHANNELS 3 Zrotation Xrotation Yrotation
                  End Site
                  {
                    OFFSET -2.33842 -0.294052 0.168128
                  }
                }
              }
              JOINT rPinky1
              {
                OFFSET -8.27202 -0.0477905 -0.4584
                CHANNELS 3 Zrotation Xrotation Yrotation
                JOINT rPinky2
                {
                  OFFSET -1.82734 -0.647385 -0.700984
                  CHANNELS 3 Zrotation Xrotation Yrotation
                  End Site
                  {
                    OFFSET -1.69225 -0.51767 -0.607171
                  }
                }
              }
            }
          }
        }
      }
      JOINT lCollar
      {
        OFFSET 2.68224 19.2634 -4.8768
        CHANNELS 3 Zrotation Xrotation Yrotation
        JOINT lShldr
        {
          OFFSET 8.77824 -1.95073 1.46304
          CHANNELS 3 Zrotation Xrotation Yrotation
          JOINT lForeArm
          {
            OFFSET 28.1742 -1.7115 0.48768
            CHANNELS 3 Zrotation Xrotation Yrotation
            JOINT lHand
            {
              OFFSET 22.5879 0.773209 7.07136
              CHANNELS 3 Zrotation Xrotation Yrotation
              JOINT lThumb1
              {
                OFFSET 1.2192 -0.487915 3.41376
                CHANNELS 3 Zrotation Xrotation Yrotation
                JOINT lThumb2
                {
                  OFFSET 3.37035 -0.52449 3.41376
                  CHANNELS 3 Zrotation Xrotation Yrotation
                  End Site
                  {
                    OFFSET 1.78271 -1.18214 1.43049
                  }
                }
              }
              JOINT lIndex1
              {
                OFFSET 7.75947 0.938293 5.60832
                CHANNELS 3 Zrotation Xrotation Yrotation
                JOINT lIndex2
                {
                  OFFSET 2.54057 -0.884171 1.56538
                  CHANNELS 3 Zrotation Xrotation Yrotation
                  End Site
                  {
                    OFFSET 1.62519 -0.234802 1.16502
                  }
                }
              }
              JOINT lMid1
              {
                OFFSET 8.24714 1.18213 3.41376
                CHANNELS 3 Zrotation Xrotation Yrotation
                JOINT lMid2
                {
                  OFFSET 3.10165 -0.590103 1.0647
                  CHANNELS 3 Zrotation Xrotation Yrotation
                  End Site
                  {
                    OFFSET 2.48547 -0.328903 0.83742
                  }
                }
              }
              JOINT lRing1
              {
                OFFSET 8.82822 0.546677 1.51678
                CHANNELS 3 Zrotation Xrotation Yrotation
                JOINT lRing2
                {
                  OFFSET 2.60934 -0.819778 -0.0198488
                  CHANNELS 3 Zrotation Xrotation Yrotation
                  End Site
                  {
                    OFFSET 2.33842 -0.294052 0.168128
                  }
                }
              }
              JOINT lPinky1
              {
                OFFSET 8.27202 -0.0477905 -0.4584
                CHANNELS 3 Zrotation Xrotation Yrotation
                JOINT lPinky2
                {
                  OFFSET 1.82734 -0.647385 -0.700984
                  CHANNELS 3 Zrotation Xrotation Yrotation
                  End Site
                  {
                    OFFSET 1.69225 -0.51767 -0.607171
                  }
                }
              }
            }
          }
        }
      }
    }
  }
  JOINT rButtock
  {
    OFFSET -8.77824 4.35084 1.2192
    CHANNELS 3 Zrotation Xrotation Yrotation
    JOINT rThigh
    {
      OFFSET 0 -1.70687 -2.19456
      CHANNELS 3 Zrotation Xrotation Yrotation
      JOINT rShin
      {
        OFFSET 0 -36.8199 0.73152
        CHANNELS 3 Zrotation Xrotation Yrotation
        JOINT rFoot
        {
          OFFSET 0.73152 -45.1104 -5.12064
          CHANNELS 3 Zrotation Xrotation Yrotation
          End Site
          {
            OFFSET -1.1221 -3.69964 12.103
          }
        }
      }
    }
  }
  JOINT lButtock
  {
    OFFSET 8.77824 4.35084 1.2192
    CHANNELS 3 Zrotation Xrotation Yrotation
    JOINT lThigh
    {
      OFFSET 0 -1.70687 -2.19456
      CHANNELS 3 Zrotation Xrotation Yrotation
      JOINT lShin
      {
        OFFSET 0 -36.8199 0.73152
        CHANNELS 3 Zrotation Xrotation Yrotation
        JOINT lFoot
        {
          OFFSET -0.73152 -45.1104 -5.12064
          CHANNELS 3 Zrotation Xrotation Yrotation
          End Site
          {
            OFFSET 1.1221 -3.69964 12.103
          }
        }
      }
    }
  }
}
MOTION
Frames:	4
Frame Time:	0.03333
0.008990628644824028 -0.3437414765357971 0.07754047960042953 -20.844580829143524 -2.334239836782217 3.7943581491708755 -1.758040152490139 14.138476252555847 3.8123859465122223 2.519982475787401 -9.53348346054554 1.2269303295761347 -4.746329113841057 14.943183213472366 -3.476257547736168 8.339973539113998 -24.00485336780548 -5.055856704711914 -0.01641045542783104 -0.061057984130457044 -0.0008878210064722225 0.04675775009673089 -0.023292748373933136 0.03778256010264158 -0.05754326353780925 0.046436325064860284 -0.03203627304174006 44.50227588415146 26.763317584991455 13.044932931661606 -23.645402491092682 -28.030178546905518 62.41713881492615 -4.482090622186661 -10.291661471128464 -4.134901463985443 0.06600533961318433 0.018607141391839832 0.10259758564643562 -0.04160590760875493 -0.047146026045084 0.09041342069394886 0.024315945629496127 0.022767847403883934 0.0003585725789889693 7.732799202203751 5.462943948805332 0.3825790621340275 -0.030283931409940124 0.02746617654338479 0.027419979160185903 2.900560609996319 0.9659916255623102 -4.510511644184589e-06 -0.060092787025496364 0.02136368479114026 -0.02377715427428484 10.20921304821968 0.7389570493251085 0.0801958073861897 -0.05185692280065268 0.0892164115794003 0.02439008094370365 2.1622183732688427 -0.6898323073983192 -0.1341935363598168 0.08106126508209854 0.07099861744791269 -0.03979836590588093 -52.23153591156006 28.97603005170822 -24.747321009635925 22.237600833177567 -25.225483775138855 -57.47124195098877 5.233460515737534 -12.777794301509857 3.935331366956234 0.01717115635983646 0.08065904374234378 0.03521217091474682 0.03412150457734242 -0.036885169974993914 -0.027987371140625328 0.09149074670858681 0.02354350872337818 0.018400996341370046 -7.676481530070305 5.405157431960106 -0.35716923885047436 -0.07993193459697068 -0.014099144318606704 -0.06382379215210676 -2.8898294270038605 0.9819286409765482 -0.1444972842000425 -0.09105194360017776 0.029321950860321522 -0.08194657217245549 -10.255782902240753 0.6652496522292495 -0.020937161170877516 0.022625449346378446 0.016068526165327057 0.016782074962975457 -2.2073641419410706 -0.7154332380741835 0.13164782663807273 0.07151583326049149 -0.03731101256562397 -0.025540840288158506 -31.649690866470337 -32.138657569885254 -26.97044312953949 -20.189260840415955 58.62679123878479 20.324587672948837 -4.658637307584286 -10.187629982829094 -9.645650088787079 -0.0039387185097439215 -0.016127140552271158 -0.08133751689456403 36.798255443573 -32.115435004234314 29.28529143333435 22.078469395637512 59.89143133163452 -19.658361822366714 4.788448847830296 -10.375684350728989 12.67778679728508
0.0057767946273088455 -0.9708786010742188 0.19634906947612762 -22.558415830135345 -0.9282967820763588 6.160966381430626 -1.9672249630093575 14.230321794748306 4.01623047888279 2.617588061839342 -9.672000110149384 1.2496504001319408 -4.877821728587151 15.147214829921722 -3.8144800812005997 8.844546675682068 -24.886530339717865 -5.4205405712127686 0.00900691156857647 -0.08380414335988462 -0.017520762921776623 0.10286770295351744 -0.06849148019682616 -0.00890004295797553 -0.017373846494592726 0.12526886304840446 -0.08282582857646048 49.121519923210144 29.695352911949158 14.072064757347107 -23.97899955511093 -30.204564929008484 66.8835961818695 -5.08047703653574 -12.94586956501007 -5.118274390697479 0.052754462230950594 0.030230949923861772 0.13111111242324114 -0.039777586644049734 -0.019049538241233677 0.1513003301806748 0.017313519056187943 -0.024249199486803263 -0.02027875219937414 7.720467075705528 5.462562739849091 0.3645059186965227 -0.052601497736759484 0.07186751696281135 0.07997933425940573 2.8810344636440277 0.875680223107338 -0.051681919139809906 -0.07742263376712799 -0.007891918066889048 0.00735094741685316 10.14679066836834 0.7128278072923422 0.1060533500276506 -0.03168166091199964 0.13176284730434418 0.01926872762851417 2.133629210293293 -0.6473526544868946 -0.10194874252192676 0.0961579370778054 0.11515160207636654 -0.0622090813703835 -58.54830980300903 31.48983657360077 -24.175527691841125 22.86383628845215 -27.23906099796295 -61.04120314121246 6.207300201058388 -12.113938182592392 3.820108361542225 0.002994529204443097 0.1401281333528459 0.12804553611204028 0.03738240018719807 -0.013060513883829117 -0.03728868527105078 0.13548811082728207 0.058363270363770425 0.014964942529331893 -7.611837610602379 5.373416170477867 -0.3551131999120116 -0.10944406036287546 -0.0007385366916423663 -0.103607929777354 -2.8892309591174126 1.0039910674095154 -0.12567625497467816 0.0014122668653726578 0.00630208058282733 -0.15732358675450087 -10.18625132739544 0.6595258601009846 -0.0917382852640003 0.002547056064940989 -0.0143522018333897 0.07511247647926211 -2.1885541453957558 -0.7773708924651146 0.09502490283921361 0.04481641226448119 -0.10586057673208416 -0.014775577001273632 -33.40622663497925 -33.828004002571106 -29.586425721645355 -21.093505918979645 62.39752113819122 20.35164311528206 -4.704477936029434 -10.426789820194244 -10.23175299167633 -0.0818520609755069 0.0026188595074927434 -0.165802730480209 41.16182595491409 -33.48750025033951 34.19535934925079 21.96755602955818 63.667627573013306 -21.13834038376808 4.759110510349274 -10.785094052553177 13.109508454799652
0.009150814265012741 -2.4436566829681396 0.31417465955018997 -24.407297372817993 -24.014903604984283 -1.0446593910455704 6.7091334611177444 10.255318880081177 4.778360724449158 1.2450970988720655 -8.596069514751434 1.4683610759675503 -2.0737638138234615 13.492297232151031 3.2450950518250465 5.828862637281418 -24.109175205230713 8.766668066382408 0.15594370546750724 -0.1266195543576032 -0.24395101703703403 -0.004366720095276833 -0.44070303440093994 -0.04711641697213054 -0.039155452977865934 0.5681093037128448 -0.25016745552420616 89.45655763149261 50.99804162979126 -33.85468393564224 -26.216286420822144 -37.3420786857605 80.58419108390808 -10.19005872309208 -42.079398930072784 -15.508197247982025 0.07974067004397511 0.021152589179109782 1.0147720389068127 0.23136087460443377 0.36711864173412323 0.08808671962469816 -0.09874294744804502 -0.3134032362140715 -0.09119996801018715 7.803269550204277 5.503600537776947 0.521675948984921 -0.12407779460772872 0.3627939987927675 0.31441577011719346 2.8354359045624733 0.7336012646555901 -0.10310669196769595 -0.2686136984266341 -0.19466414814814925 0.3071156772784889 10.071018934249878 0.492275794968009 -0.20328598329797387 0.016047845128923655 0.09046273771673441 0.05020993645302951 2.213077414780855 -0.47973512671887875 0.1184535794891417 -0.11308291694149375 0.2420143992640078 0.2767898887395859 -57.96887755393982 9.925896003842354 -45.229618549346924 16.15747421979904 -12.573475688695908 -35.02239167690277 5.259709283709526 29.093805849552155 -10.061516538262367 -0.1366454316303134 0.509631740860641 0.503952456638217 0.07787641952745616 0.5302114505320787 -0.05526717868633568 -0.0002466008299961686 0.018712850287556648 -0.13519725878722966 -7.650405764579773 5.346988029778004 -0.7532757706940174 0.0016993182362057269 0.15190201462246478 -0.390349212102592 -2.975747287273407 1.3701207283884287 0.23739534197375178 0.12350566685199738 -0.009750330063980073 -0.2799937454983592 -9.780736863613129 0.9000879898667336 -0.3191676386632025 -0.22278342163190246 0.25126181775704026 0.7497316505759954 -2.6701709255576134 -1.265173014253378 0.1571129180956632 -0.3586082439869642 -0.2704974892549217 0.14504380524158478 -18.44257280230522 -6.544388830661774 -12.754878848791122 -7.691996768116951 50.44802248477936 13.0455981194973 -8.897551149129868 -18.233709186315536 -25.515838265419006 -0.4180891206488013 0.11641973163932562 -0.24645041674375534 79.82358634471893 -50.69694757461548 69.65414106845856 29.583778381347656 75.90701937675476 -28.336046934127808 0.08393839001655579 -3.1263861805200577 -0.42417727410793304
0.0567353256046772 -1.0800870656967163 0.4320312440395355 -22.135624587535858 -29.01638388633728 8.148536905646324 14.603442549705505 8.586762249469757 6.257676780223846 1.2018271163105965 -8.041909039020538 2.5856025516986847 -0.29912296682596207 12.257464528083801 5.641661882400513 4.89198949187994 -24.51247751712799 11.979485750198364 0.05518185091204941 -1.134202592074871 -0.28364542638882995 -0.14924399787560105 -0.545454821549356 0.17088450025767088 -0.30762529699131846 0.7490294147282839 -0.9183477982878685 97.25258588790894 45.585408210754395 -49.6409672498703 -27.608881294727325 -40.72055160999298 85.37352204322815 -2.498556487262249 -47.57936239242554 -10.29440738260746 0.433333539403975 -0.2541566966101527 2.3154167644679546 0.6621274352073669 0.8255810849368572 -0.022361063165590167 0.22955692140385509 -0.42850350961089134 0.07294921728316694 8.19459043443203 5.225980840623379 0.5211169179528952 -0.16162007697857916 0.6191791081801057 0.3236929443664849 3.1260136887431145 0.9194735717028379 -0.05470334377605468 -0.15986755723133683 -0.5555325094610453 0.5150876892730594 10.226563587784767 0.20575782749801874 -0.45884876511991024 -0.03550627618096769 0.03321943629998714 -0.0815190898720175 2.4985931999981403 -0.4962132778018713 0.5898818839341402 -0.8677471708506346 0.5569210136309266 0.5861607380211353 -55.48503398895264 8.271125257015228 -43.973379135131836 13.155076503753662 -4.050254300236702 -18.486795723438263 -0.5978776328265667 47.767165303230286 -13.443081378936768 -0.022343293530866504 0.5934165325015783 0.6703161774203181 0.05721796187572181 0.9977148659527302 -0.29736249474808574 -0.2077404409646988 -0.07512581418268383 -0.46815703622996807 -8.007445335388184 5.5405426025390625 -1.3685058709234 0.0891999201849103 0.6855230452492833 -0.6542389327660203 -2.9159196093678474 1.4325306192040443 0.41695467196404934 0.3959635365754366 0.18344849115237594 0.04969536617863923 -9.938696846365929 1.3524352479726076 -0.4117341712117195 -0.6865911092609167 0.7632358185946941 1.4440418221056461 -3.3668096736073494 -1.504529993981123 -0.13907496817409992 -0.6615034444257617 -0.21535651059821248 0.05716955638490617 -12.469175308942795 13.024568259716034 -6.541903764009476 -0.37685438990592957 29.881785213947296 -1.4900730550289154 -12.038043737411499 -19.223463088274002 -36.30336105823517 -0.8517711795866489 -0.14019308262504637 0.11325206374749541 92.49553799629211 -55.217392444610596 81.20240807533264 23.285329341888428 81.118723154068 -22.43780493736267 -2.8645221143960953 -3.025926724076271 -8.056771829724312
